# xmcd
#
# Track frame offsets: 
#        150
#        13115
#        26140
#        43711
#        60886
#        74932
#        84708
#        97217
#        110383
#        126237
#        137492
#        148930
#        163037
#        179281
#        192694
#        206536
#        222756
#        241215
#        257190
#        265859
#        282365
#        302045
#
# Disc length: 4536 seconds
#
# Revision: 2
# Processed by: cddbd v1.5.2PL0 Copyright (c) Steve Scherf et al.
# Submitted via: ExactAudioCopyFreeDBPlugin 1.0
#
DISCID=5911b616
DTITLE=Pavel Bobek - Antologie [CD 1)
DYEAR=2007
DGENRE=Country
TTITLE0=Oh, Ruby, něchtej mi lásku brát
TTITLE1=Houston
TTITLE2=Nedělní ráno
TTITLE3=Vincent
TTITLE4=Pojď stoupat jak dým
TTITLE5=Má dívka 'N'
TTITLE6=Veď mě dál, cesto má
TTITLE7=Venezuela
TTITLE8=Tam v dálce, tam v horách
TTITLE9=Já jsem byl bloud
TTITLE10=Dík, že smím pár přátel mít
TTITLE11=Tak já se loučím
TTITLE12=Dvěstě cest, jak sbohem dávat
TTITLE13=Proč mám v koutě stát
TTITLE14=Sláma v botách
TTITLE15=V městě Babylon
TTITLE16=Lásko, mě ubývá sil
TTITLE17=Pojď dál a zpívej
TTITLE18=Nádherná krásko
TTITLE19=Starý sedlář
TTITLE20=Drž se zpátky, chlapče můj
TTITLE21=Píseň pro prázdný sál
EXTD=YEAR: 2007
EXTT0=
EXTT1=
EXTT2=
EXTT3=
EXTT4=
EXTT5=
EXTT6=
EXTT7=
EXTT8=
EXTT9=
EXTT10=
EXTT11=
EXTT12=
EXTT13=
EXTT14=
EXTT15=
EXTT16=
EXTT17=
EXTT18=
EXTT19=
EXTT20=
EXTT21=
PLAYORDER=
